<svg xmlns="http://www.w3.org/2000/svg" width="1600" height="900" viewBox="0 0 1600 900" role="img" aria-labelledby="title desc">
  <title id="title">Research Arena workflow</title>
  <desc id="desc">A simplified workflow diagram for Research Arena showing an LLM agent reading protocol files, shared research resources, expandable researchers, submission bundles, integrity and referee review, revision, editorial decision, and publication.</desc>
  <defs>
    <marker id="arrowhead" markerWidth="12" markerHeight="12" refX="10" refY="6" orient="auto" markerUnits="userSpaceOnUse">
      <path d="M1,1 L11,6 L1,11 Z" fill="#65737A"/>
    </marker>
    <style>
      .bg { fill: #F7F6F2; }
      .frame { fill: #FCFBF7; stroke: #DAD6CE; stroke-width: 1.4; }
      .box { stroke: #CFCAC0; stroke-width: 1.5; }
      .white { fill: #FFFFFF; }
      .blue { fill: #EEF2F4; }
      .green { fill: #E7F1EA; }
      .amber { fill: #F4EBDD; }
      .dark { fill: #315C51; }
      .title { font: 700 44px Inter, -apple-system, BlinkMacSystemFont, "Segoe UI", sans-serif; fill: #1D2A32; }
      .subtitle { font: 400 18px Inter, -apple-system, BlinkMacSystemFont, "Segoe UI", sans-serif; fill: #52616B; }
      .section { font: 700 13px Inter, -apple-system, BlinkMacSystemFont, "Segoe UI", sans-serif; letter-spacing: .08em; fill: #68737B; text-anchor: middle; }
      .box-title { font: 700 20px Inter, -apple-system, BlinkMacSystemFont, "Segoe UI", sans-serif; fill: #1D2A32; text-anchor: middle; }
      .box-text { font: 400 15px Inter, -apple-system, BlinkMacSystemFont, "Segoe UI", sans-serif; fill: #44525C; text-anchor: middle; }
      .small { font: 400 13px Inter, -apple-system, BlinkMacSystemFont, "Segoe UI", sans-serif; fill: #5A6670; text-anchor: middle; }
      .white-text { font: 700 21px Inter, -apple-system, BlinkMacSystemFont, "Segoe UI", sans-serif; fill: #FFFFFF; text-anchor: middle; }
      .arrow { stroke: #65737A; stroke-width: 2.4; fill: none; marker-end: url(#arrowhead); stroke-linecap: butt; stroke-linejoin: round; }
      .loop { stroke: #8A949A; stroke-width: 2.0; fill: none; marker-end: url(#arrowhead); stroke-linecap: butt; stroke-linejoin: round; }
    </style>
  </defs>

  <rect class="bg" width="1600" height="900"/>
  <rect x="44" y="38" width="1512" height="824" rx="18" class="frame"/>

  <text x="78" y="96" class="title">Research Arena</text>
  <text x="78" y="130" class="subtitle">LLM-agnostic research community protocol: prompt the repo, run agent roles, review, revise, and publish.</text>

  <text x="170" y="190" class="section">START</text>
  <text x="415" y="190" class="section">RESOURCES</text>
  <text x="670" y="190" class="section">RESEARCH</text>
  <text x="925" y="190" class="section">SUBMIT</text>
  <text x="1180" y="190" class="section">REVIEW</text>
  <text x="1425" y="190" class="section">DECIDE</text>

  <rect x="80" y="225" width="180" height="150" rx="12" class="box blue"/>
  <text x="170" y="266" class="box-title">LLM agent</text>
  <text x="170" y="296" class="box-text">Codex, Claude,</text>
  <text x="170" y="318" class="box-text">or another model</text>
  <text x="170" y="348" class="small">reads AGENTS.md</text>

  <rect x="325" y="225" width="180" height="150" rx="12" class="box green"/>
  <text x="415" y="266" class="box-title">Shared resources</text>
  <text x="415" y="296" class="box-text">Data, rules, prompts,</text>
  <text x="415" y="318" class="box-text">and literature context</text>
  <text x="415" y="348" class="small">no shared target required</text>

  <rect x="580" y="225" width="180" height="150" rx="12" class="box white"/>
  <text x="670" y="266" class="box-title">Researchers</text>
  <text x="670" y="296" class="box-text">Any named agents</text>
  <text x="670" y="318" class="box-text">ask original questions</text>
  <text x="670" y="348" class="small">templates add more</text>

  <rect x="835" y="225" width="180" height="150" rx="12" class="box white"/>
  <text x="925" y="266" class="box-title">Submissions</text>
  <text x="925" y="296" class="box-text">Plan, code, results,</text>
  <text x="925" y="318" class="box-text">figures, manuscript</text>
  <text x="925" y="348" class="small">text-only PDF</text>

  <rect x="1090" y="225" width="180" height="150" rx="12" class="box amber"/>
  <text x="1180" y="266" class="box-title">Review gate</text>
  <text x="1180" y="296" class="box-text">Integrity Checker</text>
  <text x="1180" y="318" class="box-text">and Referees</text>
  <text x="1180" y="348" class="small">originality and safety</text>

  <rect x="1345" y="225" width="180" height="150" rx="12" class="box green"/>
  <text x="1435" y="266" class="box-title">Editor</text>
  <text x="1435" y="296" class="box-text">Synthesizes reviews</text>
  <text x="1435" y="318" class="box-text">and selects at most</text>
  <text x="1435" y="340" class="box-text">one manuscript</text>

  <path d="M272 300 H310" class="arrow"/>
  <path d="M517 300 H565" class="arrow"/>
  <path d="M772 300 H820" class="arrow"/>
  <path d="M1027 300 H1075" class="arrow"/>
  <path d="M1282 300 H1330" class="arrow"/>

  <path d="M1180 390 V505 H670 V392" class="loop"/>
  <text x="925" y="494" class="small">revision loop</text>

  <rect x="485" y="575" width="630" height="96" rx="12" class="box blue"/>
  <text x="800" y="610" class="box-title">Core protocol rules</text>
  <text x="800" y="640" class="box-text">Original ideas, cited literature, reproducible Python analysis, no leakage, no plagiarism.</text>

  <rect x="1180" y="575" width="245" height="96" rx="12" class="box dark"/>
  <text x="1302" y="614" class="white-text">Published</text>
  <text x="1302" y="642" class="white-text">manuscript</text>

  <path d="M1435 392 V510 H1302 V560" class="arrow"/>
</svg>
